<svg width="491" height="326" viewBox="0 0 491 326" fill="none" xmlns="http://www.w3.org/2000/svg">
<g clip-path="url(#clip0_15_157)">
<path d="M189.759 221.538C316.046 214.961 422.623 207.89 503.307 131V338.762L189.759 307.947V221.538Z" stroke="#141E46" stroke-width="4"/>
<path d="M91.5958 259.342C91.5958 259.342 85.5599 252.035 91.5958 244.411C97.6317 236.787 128.129 240.281 128.129 240.281C138.901 204.589 152.59 195.806 162.12 204.066C171.651 212.325 155.456 215.298 152.59 234.881H189.441V299.37H91.5958C86.2035 292.714 85.5098 288.801 91.5958 281.262M91.5958 259.342C99.8555 259.342 118.281 259.342 118.281 259.342M91.5958 259.342C83.9822 268.802 84.2889 273.561 91.5958 281.262M91.5958 281.262H118.281" stroke="black" stroke-width="4"/>
<rect x="53.9352" y="47.3863" width="338" height="142" rx="30" transform="rotate(-4.76016 53.9352 47.3863)" stroke="black" stroke-width="4"/>
<path d="M99.0935 89.3517L103.909 88.9507L112.045 98.7413L106.656 99.19L99.0935 89.3517ZM93.0299 77.8472L97.5901 77.4674L99.4489 99.7902L94.8887 100.17L93.0299 77.8472ZM96.1282 81.5067L95.8043 77.6162L100.524 77.2231C102.288 77.0762 103.812 77.249 105.095 77.7416C106.377 78.2342 107.392 78.9846 108.14 79.9927C108.888 81.0008 109.321 82.217 109.439 83.6414C109.556 85.0446 109.33 86.3157 108.761 87.4548C108.191 88.5727 107.314 89.4806 106.13 90.1786C104.947 90.8765 103.473 91.299 101.708 91.4459L96.9886 91.8389L96.6859 88.2035L101.119 87.8344C101.926 87.7671 102.607 87.582 103.16 87.2791C103.732 86.9532 104.157 86.5324 104.435 86.0169C104.712 85.4801 104.821 84.8609 104.762 84.1594C104.704 83.4578 104.495 82.8758 104.135 82.4134C103.774 81.9297 103.285 81.5851 102.668 81.3795C102.071 81.1509 101.369 81.0703 100.561 81.1376L96.1282 81.5067ZM112.682 91.3028C112.555 89.7721 112.794 88.4035 113.4 87.197C114.027 85.9888 114.92 85.0154 116.079 84.2767C117.259 83.5362 118.625 83.1013 120.177 82.9721C121.729 82.8429 123.137 83.0467 124.402 83.5836C125.688 84.1187 126.73 84.931 127.527 86.0206C128.345 87.1085 128.818 88.4177 128.946 89.9484C129.071 91.4579 128.822 92.8274 128.196 94.0568C127.59 95.2633 126.697 96.2367 125.517 96.9772C124.358 97.7159 123.003 98.1499 121.451 98.2791C119.899 98.4084 118.48 98.2054 117.194 97.6703C115.929 97.1334 114.887 96.3211 114.069 95.2332C113.27 94.1224 112.808 92.8122 112.682 91.3028ZM116.891 90.9522C116.96 91.7814 117.192 92.5007 117.585 93.1101C117.998 93.6966 118.517 94.1457 119.142 94.4576C119.766 94.7481 120.439 94.8633 121.162 94.8031C121.885 94.743 122.529 94.518 123.096 94.1283C123.662 93.7173 124.089 93.1894 124.377 92.5445C124.686 91.8766 124.805 91.1281 124.736 90.299C124.667 89.4698 124.425 88.7514 124.011 88.1437C123.618 87.5343 123.109 87.0842 122.486 86.7937C121.862 86.5031 121.189 86.3879 120.466 86.4481C119.743 86.5083 119.098 86.7332 118.531 87.1229C117.964 87.5127 117.527 88.0415 117.218 88.7094C116.931 89.3755 116.822 90.1231 116.891 90.9522ZM134.73 71.8059L136.801 96.6798L132.655 97.025L130.584 72.1511L134.73 71.8059ZM141.383 87.3072C141.302 86.3293 141.048 85.6011 140.623 85.1228C140.219 84.6426 139.581 84.4388 138.71 84.5114C138.136 84.5592 137.636 84.7293 137.211 85.0216C136.784 85.2926 136.472 85.6611 136.275 86.127C136.079 86.5929 136.006 87.1342 136.057 87.7507L135.228 87.8198C135.131 86.6505 135.235 85.5822 135.539 84.6149C135.865 83.6458 136.399 82.8522 137.139 82.2339C137.88 81.6156 138.824 81.2587 139.972 81.1631C141.12 81.0675 142.084 81.2013 142.863 81.5646C143.643 81.9278 144.249 82.5196 144.681 83.3399C145.112 84.1389 145.377 85.1443 145.478 86.3561L146.272 95.8911L142.126 96.2363L141.383 87.3072ZM152.898 90.7475C152.934 91.1727 153.071 91.5359 153.31 91.8371C153.547 92.117 153.854 92.327 154.229 92.467C154.624 92.5839 155.045 92.6238 155.492 92.5866C156.13 92.5335 156.693 92.3582 157.182 92.0606C157.669 91.7417 158.052 91.3245 158.33 90.809C158.606 90.2722 158.715 89.653 158.657 88.9514L159.327 90.8223C159.404 91.7577 159.204 92.5665 158.726 93.2485C158.269 93.9288 157.639 94.4629 156.836 94.8509C156.055 95.237 155.218 95.4673 154.325 95.5417C153.411 95.6178 152.545 95.5079 151.729 95.212C150.912 94.9161 150.231 94.4483 149.685 93.8087C149.159 93.1461 148.854 92.3152 148.771 91.316C148.652 89.8916 149.058 88.7232 149.988 87.8108C150.919 86.8985 152.298 86.3662 154.126 86.214C155.062 86.1361 155.888 86.1636 156.606 86.2965C157.344 86.4276 157.97 86.611 158.482 86.8467C158.994 87.0824 159.367 87.3189 159.6 87.5563L159.76 89.4697C159.15 89.0923 158.475 88.8274 157.735 88.675C157.016 88.5208 156.263 88.4765 155.476 88.542C154.838 88.5951 154.324 88.7235 153.935 88.9272C153.543 89.1097 153.264 89.3577 153.098 89.6713C152.929 89.9636 152.863 90.3223 152.898 90.7475ZM150.807 84.9169L149.043 82.2381C149.774 81.7704 150.678 81.3099 151.753 80.8564C152.827 80.3817 154.044 80.0876 155.405 79.9743C156.659 79.8699 157.79 79.9577 158.798 80.2376C159.806 80.5176 160.616 80.9854 161.227 81.6409C161.837 82.2752 162.183 83.0919 162.266 84.0912L163.132 94.4872L159.146 94.8191L158.352 85.2841C158.318 84.8802 158.226 84.5453 158.075 84.2796C157.923 83.9926 157.701 83.7649 157.408 83.5966C157.137 83.4265 156.817 83.314 156.449 83.259C156.08 83.2041 155.673 83.1952 155.227 83.2324C154.546 83.289 153.904 83.4174 153.3 83.6176C152.696 83.8177 152.179 84.0427 151.751 84.2925C151.322 84.5423 151.007 84.7504 150.807 84.9169ZM175.702 84.4494C175.62 83.4715 175.367 82.7433 174.942 82.265C174.517 81.7866 173.879 81.5828 173.028 81.6536C172.454 81.7014 171.955 81.8715 171.53 82.1638C171.103 82.4348 170.791 82.8033 170.594 83.2692C170.397 83.7352 170.325 84.2764 170.376 84.8929L171.12 93.822L166.974 94.1672L165.752 79.498L169.898 79.1528L170.084 81.3851C170.461 80.5187 170.994 79.8429 171.681 79.3575C172.388 78.8491 173.262 78.5515 174.304 78.4648C176.047 78.3196 177.386 78.7112 178.32 79.6396C179.251 80.5467 179.791 81.8826 179.938 83.6471L180.718 93.0227L176.445 93.3785L175.702 84.4494ZM192.207 71.5793C192.151 70.899 192.349 70.3259 192.803 69.86C193.254 69.3728 193.821 69.1009 194.501 69.0443C195.181 68.9876 195.774 69.163 196.279 69.5705C196.803 69.955 197.094 70.4874 197.15 71.1677C197.205 71.8268 197.007 72.3999 196.555 72.8871C196.124 73.3725 195.569 73.6435 194.889 73.7001C194.208 73.7568 193.605 73.5823 193.079 73.1765C192.553 72.7708 192.262 72.2384 192.207 71.5793ZM191.65 94.9702C191.861 95.1881 192.1 95.3609 192.368 95.4885C192.614 95.6178 192.897 95.6692 193.216 95.6427C193.556 95.6143 193.836 95.5054 194.055 95.3158C194.275 95.1263 194.423 94.8464 194.499 94.4761C194.577 94.1271 194.593 93.6762 194.547 93.1235L193.222 77.2105L197.208 76.8786L198.613 93.7482C198.7 94.7899 198.585 95.72 198.267 96.5385C197.95 97.357 197.427 98.0107 196.697 98.4996C195.969 99.0098 195.041 99.3118 193.914 99.4056C193.298 99.457 192.76 99.4268 192.301 99.3152C191.821 99.2053 191.412 99.0467 191.074 98.8394C190.714 98.6339 190.397 98.4248 190.122 98.2122L191.65 94.9702ZM206.583 85.089C206.662 86.0457 206.916 86.7738 207.343 87.2735C207.768 87.7518 208.406 87.9556 209.256 87.8848C209.851 87.8352 210.352 87.6758 210.757 87.4065C211.183 87.1142 211.494 86.7351 211.69 86.2692C211.908 85.8015 211.992 85.2594 211.94 84.6429L211.197 75.7138L215.31 75.3712L216.532 90.0404L212.418 90.383L212.232 88.1507C211.834 89.0188 211.291 89.7062 210.606 90.2128C209.918 90.6982 209.054 90.9843 208.012 91.071C206.269 91.2162 204.92 90.8254 203.965 89.8988C203.031 88.9704 202.492 87.6346 202.347 85.8913L201.566 76.5157L205.839 76.1599L206.583 85.089ZM220.912 84.5701C221.576 85.0927 222.189 85.5127 222.751 85.8298C223.311 86.1257 223.832 86.3392 224.314 86.4704C224.817 86.5997 225.281 86.6467 225.706 86.6113C226.259 86.5653 226.674 86.4129 226.952 86.1543C227.229 85.8744 227.349 85.5218 227.314 85.0966C227.282 84.714 227.128 84.4057 226.852 84.1718C226.595 83.9149 226.224 83.6996 225.738 83.526C225.253 83.3523 224.639 83.1787 223.897 83.005C223.195 82.8065 222.511 82.5638 221.845 82.2767C221.177 81.9684 220.607 81.545 220.134 81.0064C219.68 80.4447 219.415 79.7068 219.339 78.7927C219.267 77.921 219.439 77.1681 219.858 76.5339C220.274 75.8784 220.863 75.3691 221.625 75.0059C222.406 74.6198 223.286 74.386 224.264 74.3045C225.093 74.2355 225.878 74.2772 226.618 74.4296C227.359 74.582 228.052 74.8132 228.699 75.1233C229.344 75.4121 229.92 75.7709 230.426 76.1997L228.821 78.9022C228.242 78.3724 227.565 77.9578 226.791 77.6584C226.038 77.3572 225.311 77.2358 224.609 77.2942C224.141 77.3331 223.777 77.4598 223.517 77.6741C223.276 77.8655 223.17 78.1418 223.201 78.5032C223.227 78.8221 223.379 79.0985 223.655 79.3324C223.951 79.5432 224.351 79.724 224.856 79.8746C225.382 80.0234 225.976 80.2095 226.637 80.4328C227.448 80.6649 228.199 80.9449 228.89 81.2727C229.6 81.5774 230.181 81.9894 230.631 82.5085C231.081 83.0276 231.343 83.7336 231.417 84.6265C231.539 86.0934 231.156 87.2813 230.269 88.1901C229.379 89.0776 228.095 89.5913 226.415 89.7312C225.374 89.8179 224.405 89.7594 223.511 89.5556C222.637 89.3501 221.831 89.0533 221.093 88.6652C220.373 88.2542 219.715 87.8059 219.118 87.3204L220.912 84.5701ZM231.512 74.0221L240.568 73.2679L240.858 76.7439L231.801 77.498L231.512 74.0221ZM233.606 68.7099L237.592 68.378L239.239 88.1496L235.253 88.4815L233.606 68.7099ZM253.861 81.8264C254.525 82.3491 255.138 82.769 255.699 83.0861C256.259 83.382 256.78 83.5955 257.262 83.7267C257.765 83.856 258.229 83.903 258.654 83.8676C259.207 83.8216 259.623 83.6692 259.901 83.4106C260.177 83.1307 260.298 82.7781 260.262 82.3529C260.23 81.9703 260.076 81.662 259.8 81.4281C259.543 81.1712 259.172 80.9559 258.687 80.7823C258.201 80.6086 257.587 80.435 256.845 80.2613C256.143 80.0629 255.46 79.8201 254.793 79.5331C254.126 79.2248 253.555 78.8013 253.082 78.2627C252.629 77.7011 252.364 76.9631 252.288 76.049C252.215 75.1773 252.388 74.4244 252.806 73.7902C253.222 73.1347 253.812 72.6254 254.573 72.2622C255.355 71.8761 256.234 71.6423 257.212 71.5608C258.041 71.4918 258.826 71.5335 259.567 71.6859C260.307 71.8383 261.001 72.0695 261.647 72.3796C262.292 72.6684 262.868 73.0272 263.375 73.456L261.769 76.1585C261.19 75.6288 260.513 75.2142 259.739 74.9147C258.986 74.6135 258.259 74.4921 257.558 74.5505C257.09 74.5894 256.726 74.7161 256.465 74.9304C256.224 75.1218 256.119 75.3981 256.149 75.7596C256.176 76.0784 256.327 76.3548 256.603 76.5887C256.899 76.7995 257.3 76.9803 257.805 77.1309C258.331 77.2797 258.924 77.4658 259.585 77.6891C260.396 77.9212 261.148 78.2012 261.838 78.529C262.549 78.8337 263.129 79.2457 263.579 79.7648C264.029 80.2839 264.291 80.9899 264.365 81.8828C264.488 83.3498 264.105 84.5376 263.217 85.4464C262.328 86.3339 261.043 86.8476 259.364 86.9875C258.322 87.0742 257.354 87.0157 256.459 86.8119C255.586 86.6064 254.78 86.3096 254.041 85.9215C253.322 85.5105 252.664 85.0622 252.067 84.5767L253.861 81.8264ZM265.964 78.5386C265.837 77.0079 266.076 75.6394 266.682 74.4329C267.309 73.2247 268.202 72.2512 269.361 71.5125C270.541 70.7721 271.907 70.3372 273.459 70.208C275.01 70.0787 276.419 70.2826 277.684 70.8194C278.97 71.3546 280.012 72.1669 280.809 73.2565C281.627 74.3444 282.1 75.6536 282.228 77.1843C282.353 78.6938 282.104 80.0632 281.478 81.2927C280.872 82.4992 279.979 83.4726 278.799 84.2131C277.64 84.9518 276.285 85.3858 274.733 85.515C273.181 85.6442 271.762 85.4413 270.476 84.9062C269.211 84.3693 268.169 83.5569 267.351 82.4691C266.552 81.3582 266.09 80.0481 265.964 78.5386ZM270.173 78.1881C270.242 79.0172 270.474 79.7365 270.867 80.346C271.28 80.9324 271.799 81.3816 272.424 81.6934C273.048 81.984 273.721 82.0992 274.444 82.039C275.167 81.9788 275.811 81.7539 276.378 81.3642C276.944 80.9532 277.371 80.4252 277.659 79.7804C277.968 79.1125 278.087 78.364 278.018 77.5349C277.949 76.7057 277.707 75.9873 277.293 75.3796C276.9 74.7701 276.391 74.3201 275.768 74.0295C275.144 73.7389 274.471 73.6238 273.748 73.6839C273.025 73.7441 272.38 73.9691 271.813 74.3588C271.246 74.7485 270.809 75.2774 270.5 75.9452C270.213 76.6114 270.104 77.359 270.173 78.1881ZM283.866 59.387L288.012 59.0418L290.083 83.9157L285.937 84.2609L283.866 59.387ZM303.153 57.7809L307.299 57.4357L309.37 82.3096L305.224 82.6548L303.153 57.7809ZM292.559 76.324C292.423 74.687 292.638 73.2777 293.203 72.096C293.766 70.8931 294.565 69.9489 295.6 69.2633C296.635 68.5777 297.758 68.1845 298.97 68.0836C300.203 67.9809 301.313 68.1989 302.299 68.7375C303.307 69.2744 304.125 70.0947 304.752 71.1985C305.399 72.2792 305.788 73.6168 305.921 75.2113C306.052 76.7845 305.889 78.1682 305.432 79.3622C304.996 80.5545 304.325 81.4988 303.42 82.195C302.536 82.8894 301.477 83.2879 300.244 83.3906C299.033 83.4915 297.86 83.2895 296.726 82.7845C295.592 82.2795 294.648 81.4805 293.893 80.3873C293.139 79.2942 292.694 77.9397 292.559 76.324ZM296.833 75.9681C296.905 76.8398 297.149 77.5795 297.563 78.1872C297.978 78.7949 298.508 79.2431 299.152 79.5319C299.797 79.8207 300.47 79.9359 301.172 79.8775C301.789 79.8262 302.371 79.6172 302.918 79.2505C303.485 78.8607 303.923 78.3319 304.231 77.664C304.56 76.9944 304.688 76.2131 304.614 75.3202C304.539 74.4273 304.284 73.6779 303.848 73.0719C303.434 72.4642 302.916 72.0257 302.294 71.7564C301.692 71.4641 301.082 71.3435 300.466 71.3949C299.764 71.4533 299.119 71.6783 298.531 72.0698C297.943 72.4613 297.495 72.9909 297.186 73.6588C296.878 74.3267 296.76 75.0965 296.833 75.9681ZM324.977 55.9636L327.049 80.8375L322.903 81.1827L320.832 56.3088L324.977 55.9636ZM331.631 71.4649C331.549 70.4869 331.296 69.7588 330.871 69.2804C330.467 68.8003 329.829 68.5965 328.957 68.6691C328.383 68.7169 327.884 68.8869 327.459 69.1792C327.032 69.4503 326.72 69.8187 326.523 70.2847C326.326 70.7506 326.254 71.2918 326.305 71.9084L325.476 71.9774C325.379 70.8081 325.482 69.7398 325.787 68.7725C326.113 67.8035 326.646 67.0098 327.387 66.3916C328.128 65.7733 329.072 65.4164 330.22 65.3208C331.368 65.2252 332.332 65.359 333.111 65.7222C333.891 66.0855 334.497 66.6772 334.929 67.4975C335.359 68.2965 335.625 69.302 335.726 70.5138L336.52 80.0488L332.374 80.394L331.631 71.4649ZM338.706 59.38C338.65 58.6997 338.848 58.1266 339.302 57.6607C339.753 57.1735 340.319 56.9016 341 56.845C341.68 56.7883 342.273 56.9638 342.778 57.3713C343.302 57.7557 343.593 58.2881 343.649 58.9684C343.704 59.6275 343.506 60.2006 343.054 60.6878C342.623 61.1732 342.068 61.4442 341.388 61.5009C340.707 61.5575 340.104 61.383 339.578 60.9772C339.052 60.5715 338.761 60.0391 338.706 59.38ZM339.625 65.0192L343.643 64.6846L344.865 79.3539L340.847 79.6885L339.625 65.0192ZM349.561 73.8572C350.225 74.3799 350.838 74.7998 351.399 75.117C351.959 75.4129 352.48 75.6264 352.962 75.7575C353.465 75.8869 353.929 75.9339 354.355 75.8985C354.907 75.8524 355.323 75.7001 355.601 75.4414C355.877 75.1615 355.998 74.809 355.962 74.3838C355.93 74.0011 355.776 73.6929 355.5 73.459C355.243 73.2021 354.872 72.9868 354.387 72.8132C353.901 72.6395 353.287 72.4658 352.545 72.2922C351.843 72.0937 351.16 71.851 350.493 71.5639C349.826 71.2556 349.255 70.8321 348.782 70.2935C348.329 69.7319 348.064 68.994 347.988 68.0798C347.915 67.2082 348.088 66.4552 348.506 65.821C348.922 65.1655 349.512 64.6562 350.273 64.2931C351.055 63.9069 351.934 63.6731 352.912 63.5917C353.741 63.5226 354.526 63.5643 355.267 63.7167C356.007 63.8691 356.701 64.1004 357.348 64.4105C357.992 64.6993 358.568 65.0581 359.075 65.4868L357.47 68.1894C356.89 67.6596 356.213 67.245 355.439 66.9456C354.686 66.6443 353.959 66.5229 353.258 66.5813C352.79 66.6203 352.426 66.7469 352.165 66.9613C351.924 67.1526 351.819 67.429 351.849 67.7904C351.876 68.1093 352.027 68.3857 352.303 68.6196C352.599 68.8304 353 69.0111 353.505 69.1618C354.031 69.3106 354.624 69.4967 355.285 69.7199C356.096 69.9521 356.848 70.232 357.538 70.5598C358.249 70.8646 358.829 71.2765 359.279 71.7956C359.729 72.3148 359.991 73.0208 360.066 73.9137C360.188 75.3806 359.805 76.5685 358.917 77.4773C358.028 78.3648 356.743 78.8785 355.064 79.0183C354.022 79.1051 353.054 79.0466 352.159 78.8428C351.286 78.6372 350.48 78.3404 349.741 77.9524C349.022 77.5413 348.364 77.0931 347.767 76.6076L349.561 73.8572ZM196.717 127.093L205.901 126.328L206.191 129.804L197.007 130.569L196.717 127.093ZM204.95 120.306C204.711 120.005 204.449 119.812 204.164 119.729C203.898 119.623 203.638 119.58 203.382 119.602C203.064 119.628 202.794 119.736 202.575 119.926C202.374 120.092 202.226 120.362 202.128 120.734C202.031 121.106 202.005 121.568 202.051 122.121L203.647 141.286L199.661 141.618L197.988 121.528C197.894 120.401 198.006 119.439 198.325 118.642C198.644 117.845 199.17 117.212 199.901 116.745C200.631 116.256 201.549 115.965 202.655 115.873C203.314 115.818 203.884 115.856 204.366 115.988C204.846 116.097 205.255 116.256 205.594 116.463C205.953 116.669 206.238 116.87 206.447 117.067L204.95 120.306ZM207.985 133.54C207.857 132.009 208.096 130.64 208.702 129.434C209.33 128.226 210.222 127.252 211.381 126.514C212.561 125.773 213.927 125.338 215.479 125.209C217.031 125.08 218.439 125.284 219.704 125.821C220.991 126.356 222.032 127.168 222.829 128.258C223.648 129.345 224.121 130.655 224.248 132.185C224.374 133.695 224.124 135.064 223.499 136.294C222.893 137.5 222 138.474 220.82 139.214C219.661 139.953 218.306 140.387 216.754 140.516C215.202 140.645 213.783 140.442 212.496 139.907C211.232 139.37 210.19 138.558 209.371 137.47C208.573 136.359 208.11 135.049 207.985 133.54ZM212.194 133.189C212.263 134.018 212.494 134.738 212.887 135.347C213.3 135.934 213.819 136.383 214.445 136.695C215.068 136.985 215.741 137.1 216.464 137.04C217.187 136.98 217.832 136.755 218.399 136.365C218.964 135.954 219.391 135.426 219.68 134.782C219.988 134.114 220.108 133.365 220.039 132.536C219.97 131.707 219.728 130.988 219.313 130.381C218.92 129.771 218.412 129.321 217.788 129.031C217.165 128.74 216.491 128.625 215.768 128.685C215.046 128.745 214.401 128.97 213.834 129.36C213.267 129.75 212.829 130.278 212.521 130.946C212.234 131.612 212.125 132.36 212.194 133.189ZM230.786 124.256L232.008 138.925L227.958 139.262L226.736 124.593L230.786 124.256ZM235.45 128.202C235.152 127.97 234.849 127.803 234.541 127.7C234.252 127.574 233.895 127.529 233.47 127.564C232.96 127.607 232.535 127.781 232.197 128.088C231.859 128.394 231.615 128.81 231.466 129.337C231.337 129.84 231.301 130.442 231.36 131.144L230.116 130.091C230.019 128.922 230.156 127.872 230.528 126.942C230.899 125.991 231.423 125.219 232.102 124.628C232.778 124.015 233.5 123.676 234.265 123.613C234.796 123.568 235.304 123.622 235.788 123.775C236.292 123.925 236.71 124.18 237.039 124.538L235.45 128.202Z" fill="black"/>
<path d="M96.584 125.155L100.73 124.81L102.801 149.684L98.6553 150.029L96.584 125.155ZM109.431 144.54C109.466 144.965 109.604 145.329 109.843 145.63C110.08 145.91 110.387 146.12 110.762 146.26C111.157 146.377 111.578 146.416 112.025 146.379C112.662 146.326 113.226 146.151 113.715 145.853C114.202 145.534 114.585 145.117 114.863 144.602C115.139 144.065 115.248 143.446 115.19 142.744L115.859 144.615C115.937 145.55 115.737 146.359 115.259 147.041C114.801 147.721 114.172 148.256 113.369 148.644C112.588 149.03 111.751 149.26 110.858 149.334C109.944 149.41 109.078 149.301 108.261 149.005C107.445 148.709 106.764 148.241 106.218 147.601C105.692 146.939 105.387 146.108 105.304 145.109C105.185 143.684 105.591 142.516 106.521 141.604C107.451 140.691 108.831 140.159 110.659 140.007C111.594 139.929 112.421 139.956 113.138 140.089C113.877 140.22 114.503 140.404 115.015 140.639C115.526 140.875 115.899 141.112 116.133 141.349L116.293 143.262C115.683 142.885 115.008 142.62 114.268 142.468C113.548 142.313 112.795 142.269 112.009 142.335C111.371 142.388 110.857 142.516 110.467 142.72C110.076 142.902 109.797 143.15 109.63 143.464C109.462 143.756 109.396 144.115 109.431 144.54ZM107.34 138.71L105.576 136.031C106.307 135.563 107.211 135.103 108.286 134.649C109.36 134.174 110.577 133.88 111.938 133.767C113.192 133.663 114.323 133.75 115.331 134.03C116.339 134.31 117.149 134.778 117.76 135.434C118.369 136.068 118.716 136.885 118.799 137.884L119.665 148.28L115.678 148.612L114.884 139.077C114.851 138.673 114.759 138.338 114.608 138.072C114.456 137.785 114.233 137.558 113.941 137.389C113.67 137.219 113.35 137.107 112.982 137.052C112.613 136.997 112.206 136.988 111.759 137.025C111.079 137.082 110.437 137.21 109.833 137.41C109.229 137.61 108.712 137.835 108.283 138.085C107.855 138.335 107.54 138.543 107.34 138.71ZM128.141 154.638L123.995 154.984L122.19 133.299L126.335 132.953L128.141 154.638ZM139 139.284C139.138 140.943 138.927 142.384 138.365 143.608C137.803 144.832 137.005 145.787 135.97 146.472C134.957 147.156 133.834 147.549 132.601 147.652C131.346 147.757 130.225 147.529 129.236 146.969C128.269 146.407 127.482 145.563 126.874 144.436C126.288 143.308 125.929 141.957 125.798 140.384C125.665 138.789 125.795 137.398 126.189 136.209C126.602 134.997 127.239 134.034 128.1 133.32C128.982 132.605 130.05 132.194 131.305 132.09C132.538 131.987 133.711 132.189 134.823 132.696C135.957 133.201 136.902 134.011 137.659 135.125C138.413 136.218 138.86 137.605 139 139.284ZM134.727 139.64C134.654 138.768 134.412 138.039 133.999 137.453C133.586 136.867 133.058 136.44 132.415 136.172C131.793 135.903 131.121 135.798 130.398 135.858C129.782 135.91 129.189 136.12 128.62 136.488C128.071 136.833 127.631 137.33 127.3 137.979C126.99 138.625 126.872 139.395 126.946 140.288C127.02 141.181 127.264 141.921 127.677 142.507C128.111 143.092 128.628 143.52 129.229 143.791C129.849 144.039 130.467 144.137 131.083 144.086C131.806 144.026 132.452 143.811 133.021 143.443C133.611 143.073 134.061 142.564 134.371 141.917C134.681 141.271 134.8 140.512 134.727 139.64ZM139.587 131.85L148.644 131.096L148.933 134.572L139.877 135.326L139.587 131.85ZM141.682 126.538L145.668 126.206L147.314 145.977L143.328 146.309L141.682 126.538ZM150.465 138.33C150.337 136.799 150.577 135.43 151.183 134.224C151.81 133.016 152.703 132.042 153.862 131.303C155.041 130.563 156.407 130.128 157.959 129.999C159.511 129.87 160.92 130.073 162.185 130.61C163.471 131.145 164.513 131.958 165.31 133.047C166.128 134.135 166.601 135.445 166.729 136.975C166.854 138.485 166.604 139.854 165.979 141.084C165.373 142.29 164.48 143.264 163.3 144.004C162.141 144.743 160.786 145.177 159.234 145.306C157.682 145.435 156.263 145.232 154.977 144.697C153.712 144.16 152.67 143.348 151.852 142.26C151.053 141.149 150.591 139.839 150.465 138.33ZM154.674 137.979C154.743 138.808 154.974 139.527 155.368 140.137C155.78 140.723 156.3 141.173 156.925 141.484C157.549 141.775 158.222 141.89 158.945 141.83C159.667 141.77 160.312 141.545 160.879 141.155C161.444 140.744 161.871 140.216 162.16 139.571C162.469 138.903 162.588 138.155 162.519 137.326C162.45 136.497 162.208 135.778 161.794 135.171C161.401 134.561 160.892 134.111 160.268 133.82C159.645 133.53 158.972 133.415 158.249 133.475C157.526 133.535 156.881 133.76 156.314 134.15C155.747 134.539 155.31 135.068 155.001 135.736C154.714 136.402 154.605 137.15 154.674 137.979ZM175.072 150.73L170.927 151.076L169.121 129.391L173.267 129.045L175.072 150.73ZM185.932 135.376C186.07 137.034 185.858 138.476 185.296 139.7C184.735 140.924 183.936 141.879 182.902 142.564C181.888 143.248 180.765 143.641 179.532 143.744C178.278 143.849 177.156 143.621 176.168 143.061C175.2 142.499 174.413 141.655 173.805 140.528C173.219 139.4 172.86 138.049 172.729 136.476C172.597 134.881 172.727 133.489 173.12 132.301C173.533 131.089 174.17 130.126 175.031 129.412C175.913 128.696 176.982 128.286 178.236 128.182C179.469 128.079 180.642 128.281 181.754 128.788C182.888 129.293 183.833 130.103 184.59 131.217C185.344 132.31 185.792 133.697 185.932 135.376ZM181.658 135.732C181.586 134.86 181.343 134.131 180.93 133.545C180.518 132.958 179.99 132.531 179.347 132.264C178.725 131.995 178.052 131.89 177.33 131.95C176.713 132.002 176.12 132.211 175.552 132.58C175.003 132.925 174.562 133.422 174.231 134.071C173.921 134.717 173.803 135.487 173.877 136.38C173.952 137.273 174.195 138.013 174.608 138.599C175.042 139.184 175.559 139.612 176.16 139.883C176.78 140.131 177.398 140.229 178.015 140.178C178.738 140.118 179.383 139.903 179.952 139.535C180.542 139.164 180.992 138.656 181.302 138.009C181.612 137.363 181.731 136.604 181.658 135.732Z" fill="#C70039"/>
<path d="M259.642 101.238L264.808 100.807L265.298 109.003L260.514 109.401L259.642 101.238ZM262.864 137.624L267.648 137.225L268.512 145.293L263.346 145.724L262.864 137.624ZM269.77 115.855C269.214 114.971 268.603 114.187 267.936 113.504C267.301 112.818 266.584 112.3 265.784 111.949C265.013 111.563 264.133 111.412 263.145 111.494C262.156 111.577 261.356 111.804 260.745 112.176C260.131 112.516 259.686 112.954 259.41 113.491C259.165 114.025 259.073 114.659 259.134 115.392C259.219 116.413 259.639 117.213 260.394 117.792C261.181 118.369 262.184 118.847 263.403 119.227C264.621 119.576 265.92 119.949 267.302 120.348C268.386 120.643 269.446 121.036 270.483 121.528C271.551 122.017 272.533 122.626 273.428 123.354C274.324 124.082 275.057 124.984 275.629 126.06C276.197 127.105 276.544 128.377 276.669 129.875C276.836 131.884 276.487 133.664 275.62 135.213C274.786 136.759 273.509 138.006 271.789 138.952C270.067 139.866 267.962 140.426 265.475 140.633C263.498 140.798 261.616 140.569 259.831 139.947C258.042 139.294 256.44 138.367 255.023 137.169C253.607 135.97 252.48 134.587 251.643 133.019L256.383 129.204C257.233 130.546 258.097 131.663 258.974 132.553C259.851 133.443 260.805 134.102 261.836 134.53C262.864 134.926 264 135.073 265.244 134.969C266.265 134.884 267.098 134.67 267.743 134.327C268.419 133.95 268.892 133.461 269.163 132.861C269.463 132.225 269.577 131.477 269.506 130.616C269.418 129.564 269.011 128.731 268.286 128.117C267.558 127.471 266.63 126.938 265.504 126.518C264.377 126.098 263.14 125.704 261.793 125.334C260.94 125.116 259.982 124.795 258.919 124.369C257.856 123.944 256.829 123.371 255.837 122.651C254.846 121.931 254 121.022 253.298 119.924C252.629 118.824 252.228 117.477 252.095 115.882C251.962 114.288 252.32 112.797 253.167 111.41C254.013 109.991 255.247 108.812 256.871 107.874C258.495 106.936 260.375 106.378 262.511 106.201C264.68 106.02 266.543 106.218 268.1 106.795C269.655 107.34 270.971 108.113 272.05 109.115C273.161 110.114 274.052 111.18 274.725 112.312L269.77 115.855ZM280.897 113.917L280.383 107.747L294.81 103.415L297.646 137.473L290.997 138.026L288.758 111.143L280.897 113.917ZM304.018 136.942L317.907 119.794C318.691 118.798 319.352 117.876 319.892 117.028C320.431 116.18 320.827 115.345 321.08 114.521C321.332 113.697 321.423 112.855 321.351 111.994C321.301 111.388 321.14 110.807 320.869 110.252C320.598 109.696 320.221 109.214 319.737 108.805C319.253 108.395 318.682 108.09 318.023 107.888C317.361 107.654 316.616 107.571 315.787 107.64C314.607 107.739 313.61 108.111 312.797 108.756C312.013 109.368 311.424 110.203 311.031 111.264C310.67 112.321 310.545 113.52 310.656 114.859L303.959 115.417C303.76 113.025 304.059 110.833 304.857 108.84C305.654 106.847 306.931 105.215 308.688 103.945C310.473 102.64 312.722 101.875 315.432 101.649C317.441 101.482 319.222 101.655 320.774 102.168C322.355 102.646 323.682 103.354 324.756 104.293C325.859 105.196 326.7 106.234 327.279 107.406C327.89 108.575 328.246 109.766 328.347 110.978C328.496 112.763 328.205 114.474 327.474 116.108C326.743 117.742 325.729 119.255 324.432 120.648L316.411 129.6L330.427 128.433L330.949 134.7L304.018 136.942ZM340.313 117.062C340.453 118.752 340.742 120.285 341.177 121.662C341.61 123.006 342.172 124.164 342.863 125.134C343.552 126.072 344.333 126.778 345.207 127.251C346.081 127.724 347.029 127.918 348.049 127.833C349.102 127.745 350.02 127.396 350.804 126.785C351.588 126.173 352.241 125.348 352.765 124.309C353.286 123.238 353.649 122.004 353.853 120.606C354.056 119.176 354.086 117.617 353.945 115.926C353.805 114.236 353.518 112.719 353.085 111.374C352.649 109.998 352.087 108.84 351.399 107.902C350.708 106.932 349.925 106.211 349.051 105.737C348.177 105.264 347.213 105.072 346.161 105.159C345.141 105.244 344.238 105.592 343.454 106.203C342.67 106.815 342.018 107.656 341.497 108.727C340.973 109.766 340.611 111 340.409 112.43C340.204 113.828 340.172 115.371 340.313 117.062ZM333.664 117.615C333.369 114.076 333.672 110.968 334.573 108.292C335.506 105.613 336.919 103.488 338.811 101.918C340.732 100.313 343.016 99.4004 345.663 99.18C348.406 98.9516 350.841 99.4713 352.97 100.739C355.096 101.975 356.824 103.838 358.155 106.328C359.487 108.818 360.3 111.833 360.594 115.373C360.889 118.912 360.586 122.02 359.685 124.696C358.784 127.372 357.389 129.512 355.499 131.114C353.607 132.684 351.29 133.584 348.547 133.812C345.9 134.032 343.498 133.526 341.34 132.293C339.212 131.025 337.466 129.148 336.103 126.66C334.771 124.17 333.958 121.155 333.664 117.615Z" fill="#C70039"/>
<path d="M60.2661 222.143L74.9086 194.923L69.5451 191.414L49.1061 215.86L60.2661 222.143Z" stroke="#C70039" stroke-width="3"/>
<path d="M93.1845 213.333L86.9482 195.359L83.124 196.328L85.6885 215.774L93.1845 213.333Z" stroke="#C70039" stroke-width="3"/>
</g>
<defs>
<clipPath id="clip0_15_157">
<rect width="491" height="326" rx="25" fill="white"/>
</clipPath>
</defs>
</svg>
