<svg width="185" height="46" viewBox="0 0 185 46" fill="none" xmlns="http://www.w3.org/2000/svg">
<path d="M4.992 29.424C4.992 29.8507 5.09867 30.224 5.312 30.544C5.52533 30.8427 5.81333 31.0773 6.176 31.248C6.56 31.3973 6.976 31.472 7.424 31.472C8.064 31.472 8.64 31.344 9.152 31.088C9.664 30.8107 10.08 30.4267 10.4 29.936C10.72 29.424 10.88 28.816 10.88 28.112L11.392 30.032C11.392 30.9707 11.1253 31.76 10.592 32.4C10.08 33.04 9.408 33.52 8.576 33.84C7.76533 34.16 6.912 34.32 6.016 34.32C5.09867 34.32 4.24533 34.1387 3.456 33.776C2.66667 33.4133 2.02667 32.8907 1.536 32.208C1.06667 31.504 0.832 30.6507 0.832 29.648C0.832 28.2187 1.33333 27.088 2.336 26.256C3.33867 25.424 4.75733 25.008 6.592 25.008C7.53067 25.008 8.352 25.104 9.056 25.296C9.78133 25.488 10.3893 25.7227 10.88 26C11.3707 26.2773 11.7227 26.544 11.936 26.8V28.72C11.36 28.2933 10.7093 27.9733 9.984 27.76C9.28 27.5467 8.53333 27.44 7.744 27.44C7.104 27.44 6.58133 27.5253 6.176 27.696C5.77067 27.8453 5.472 28.0693 5.28 28.368C5.088 28.6453 4.992 28.9973 4.992 29.424ZM3.392 23.44L1.856 20.624C2.624 20.2187 3.56267 19.8347 4.672 19.472C5.78133 19.088 7.01867 18.896 8.384 18.896C9.64267 18.896 10.7627 19.0773 11.744 19.44C12.7253 19.8027 13.4933 20.336 14.048 21.04C14.6027 21.7227 14.88 22.5653 14.88 23.568V34H10.88V24.432C10.88 24.0267 10.816 23.6853 10.688 23.408C10.56 23.1093 10.3573 22.864 10.08 22.672C9.824 22.48 9.51467 22.3413 9.152 22.256C8.78933 22.1707 8.384 22.128 7.936 22.128C7.25333 22.128 6.60267 22.2027 5.984 22.352C5.36533 22.5013 4.832 22.6827 4.384 22.896C3.936 23.1093 3.60533 23.2907 3.392 23.44ZM23.0235 28.24C23.0235 29.2 23.2155 29.9467 23.5995 30.48C23.9835 30.992 24.6022 31.248 25.4555 31.248C26.0528 31.248 26.5648 31.1307 26.9915 30.896C27.4395 30.64 27.7808 30.288 28.0155 29.84C28.2715 29.392 28.3995 28.8587 28.3995 28.24V19.28H32.5275V34H28.3995V31.76C27.9302 32.592 27.3328 33.232 26.6075 33.68C25.8822 34.1067 24.9968 34.32 23.9515 34.32C22.2022 34.32 20.8902 33.8187 20.0155 32.816C19.1622 31.8133 18.7355 30.4373 18.7355 28.688V19.28H23.0235V28.24ZM39.7465 26.64C39.7465 27.4933 39.9385 28.24 40.3225 28.88C40.7065 29.52 41.2185 30.0213 41.8585 30.384C42.5198 30.7467 43.2452 30.928 44.0345 30.928C44.6745 30.928 45.2932 30.832 45.8905 30.64C46.4878 30.4267 47.0212 30.1493 47.4905 29.808C47.9812 29.4453 48.3545 29.0293 48.6105 28.56V32.816C48.0985 33.2853 47.4265 33.6587 46.5945 33.936C45.7838 34.192 44.8345 34.32 43.7465 34.32C42.1892 34.32 40.7812 34 39.5225 33.36C38.2852 32.72 37.3038 31.824 36.5785 30.672C35.8745 29.4987 35.5225 28.1547 35.5225 26.64C35.5225 25.104 35.8745 23.76 36.5785 22.608C37.3038 21.456 38.2852 20.56 39.5225 19.92C40.7812 19.28 42.1892 18.96 43.7465 18.96C44.8345 18.96 45.7838 19.0987 46.5945 19.376C47.4265 19.632 48.0985 19.984 48.6105 20.432V24.688C48.3545 24.2187 47.9705 23.8133 47.4585 23.472C46.9678 23.1093 46.4238 22.832 45.8265 22.64C45.2292 22.448 44.6318 22.352 44.0345 22.352C43.2452 22.352 42.5198 22.544 41.8585 22.928C41.2185 23.2907 40.7065 23.792 40.3225 24.432C39.9385 25.072 39.7465 25.808 39.7465 26.64ZM50.3788 19.28H59.4668V22.768H50.3788V19.28ZM52.9068 14.16H56.9068V34H52.9068V14.16ZM61.481 13.584C61.481 12.9013 61.7263 12.3467 62.217 11.92C62.7077 11.472 63.2943 11.248 63.977 11.248C64.6597 11.248 65.2357 11.472 65.705 11.92C66.1957 12.3467 66.441 12.9013 66.441 13.584C66.441 14.2453 66.1957 14.8 65.705 15.248C65.2357 15.696 64.6597 15.92 63.977 15.92C63.2943 15.92 62.7077 15.696 62.217 15.248C61.7263 14.8 61.481 14.2453 61.481 13.584ZM61.929 19.28H65.961V34H61.929V19.28ZM69.3685 26.64C69.3685 25.104 69.7205 23.76 70.4245 22.608C71.1498 21.456 72.1205 20.56 73.3365 19.92C74.5738 19.28 75.9712 18.96 77.5285 18.96C79.0858 18.96 80.4725 19.28 81.6885 19.92C82.9258 20.56 83.8965 21.456 84.6005 22.608C85.3258 23.76 85.6885 25.104 85.6885 26.64C85.6885 28.1547 85.3258 29.4987 84.6005 30.672C83.8965 31.824 82.9258 32.72 81.6885 33.36C80.4725 34 79.0858 34.32 77.5285 34.32C75.9712 34.32 74.5738 34 73.3365 33.36C72.1205 32.72 71.1498 31.824 70.4245 30.672C69.7205 29.4987 69.3685 28.1547 69.3685 26.64ZM73.5925 26.64C73.5925 27.472 73.7632 28.208 74.1045 28.848C74.4672 29.4667 74.9472 29.9573 75.5445 30.32C76.1418 30.6613 76.8032 30.832 77.5285 30.832C78.2538 30.832 78.9152 30.6613 79.5125 30.32C80.1098 29.9573 80.5792 29.4667 80.9205 28.848C81.2832 28.208 81.4645 27.472 81.4645 26.64C81.4645 25.808 81.2832 25.072 80.9205 24.432C80.5792 23.792 80.1098 23.3013 79.5125 22.96C78.9152 22.6187 78.2538 22.448 77.5285 22.448C76.8032 22.448 76.1418 22.6187 75.5445 22.96C74.9472 23.3013 74.4672 23.792 74.1045 24.432C73.7632 25.072 73.5925 25.808 73.5925 26.64ZM98.302 25.04C98.302 24.0587 98.11 23.312 97.726 22.8C97.342 22.288 96.7233 22.032 95.87 22.032C95.294 22.032 94.782 22.16 94.334 22.416C93.886 22.6507 93.5447 22.992 93.31 23.44C93.0753 23.888 92.958 24.4213 92.958 25.04V34H88.798V19.28H92.958V21.52C93.406 20.688 93.9927 20.0587 94.718 19.632C95.4647 19.184 96.3607 18.96 97.406 18.96C99.1553 18.96 100.457 19.4613 101.31 20.464C102.163 21.4453 102.59 22.8213 102.59 24.592V34H98.302V25.04ZM104.785 19.28H113.873V22.768H104.785V19.28ZM107.313 14.16H111.313V34H107.313V14.16ZM119.023 29.424C119.023 29.8507 119.13 30.224 119.343 30.544C119.557 30.8427 119.845 31.0773 120.207 31.248C120.591 31.3973 121.007 31.472 121.455 31.472C122.095 31.472 122.671 31.344 123.183 31.088C123.695 30.8107 124.111 30.4267 124.431 29.936C124.751 29.424 124.911 28.816 124.911 28.112L125.423 30.032C125.423 30.9707 125.157 31.76 124.623 32.4C124.111 33.04 123.439 33.52 122.607 33.84C121.797 34.16 120.943 34.32 120.047 34.32C119.13 34.32 118.277 34.1387 117.487 33.776C116.698 33.4133 116.058 32.8907 115.567 32.208C115.098 31.504 114.863 30.6507 114.863 29.648C114.863 28.2187 115.365 27.088 116.367 26.256C117.37 25.424 118.789 25.008 120.623 25.008C121.562 25.008 122.383 25.104 123.087 25.296C123.813 25.488 124.421 25.7227 124.911 26C125.402 26.2773 125.754 26.544 125.967 26.8V28.72C125.391 28.2933 124.741 27.9733 124.015 27.76C123.311 27.5467 122.565 27.44 121.775 27.44C121.135 27.44 120.613 27.5253 120.207 27.696C119.802 27.8453 119.503 28.0693 119.311 28.368C119.119 28.6453 119.023 28.9973 119.023 29.424ZM117.423 23.44L115.887 20.624C116.655 20.2187 117.594 19.8347 118.703 19.472C119.813 19.088 121.05 18.896 122.415 18.896C123.674 18.896 124.794 19.0773 125.775 19.44C126.757 19.8027 127.525 20.336 128.079 21.04C128.634 21.7227 128.911 22.5653 128.911 23.568V34H124.911V24.432C124.911 24.0267 124.847 23.6853 124.719 23.408C124.591 23.1093 124.389 22.864 124.111 22.672C123.855 22.48 123.546 22.3413 123.183 22.256C122.821 22.1707 122.415 22.128 121.967 22.128C121.285 22.128 120.634 22.2027 120.015 22.352C119.397 22.5013 118.863 22.6827 118.415 22.896C117.967 23.1093 117.637 23.2907 117.423 23.44ZM136.831 9.04V34H132.671V9.04H136.831ZM148.927 26.64C148.927 28.2613 148.596 29.648 147.935 30.8C147.273 31.952 146.399 32.8267 145.311 33.424C144.244 34.0213 143.092 34.32 141.855 34.32C140.639 34.32 139.551 34.0107 138.591 33.392C137.652 32.7733 136.905 31.888 136.351 30.736C135.796 29.584 135.519 28.2187 135.519 26.64C135.519 25.04 135.796 23.6747 136.351 22.544C136.905 21.392 137.652 20.5067 138.591 19.888C139.551 19.2693 140.639 18.96 141.855 18.96C143.092 18.96 144.244 19.2587 145.311 19.856C146.399 20.4533 147.273 21.328 147.935 22.48C148.596 23.6107 148.927 24.9973 148.927 26.64ZM144.639 26.64C144.639 25.7653 144.457 25.008 144.095 24.368C143.732 23.728 143.241 23.2373 142.623 22.896C142.025 22.5547 141.364 22.384 140.639 22.384C140.02 22.384 139.412 22.5547 138.815 22.896C138.239 23.216 137.759 23.696 137.375 24.336C137.012 24.976 136.831 25.744 136.831 26.64C136.831 27.536 137.012 28.304 137.375 28.944C137.759 29.584 138.239 30.0747 138.815 30.416C139.412 30.736 140.02 30.896 140.639 30.896C141.364 30.896 142.025 30.7253 142.623 30.384C143.241 30.0427 143.732 29.552 144.095 28.912C144.457 28.272 144.639 27.5147 144.639 26.64ZM152.017 9.04H156.177V34H152.017V9.04ZM167.211 34.32C165.611 34.32 164.213 34 163.019 33.36C161.824 32.72 160.896 31.8347 160.235 30.704C159.595 29.552 159.275 28.1973 159.275 26.64C159.275 25.0613 159.595 23.7067 160.235 22.576C160.896 21.424 161.824 20.5387 163.019 19.92C164.213 19.28 165.621 18.96 167.243 18.96C168.864 18.96 170.24 19.2587 171.371 19.856C172.523 20.432 173.397 21.2853 173.995 22.416C174.592 23.5253 174.891 24.8693 174.891 26.448C174.891 26.64 174.88 26.8427 174.859 27.056C174.859 27.2693 174.848 27.44 174.827 27.568H161.643V25.008H171.211L170.091 26.48C170.176 26.352 170.251 26.1813 170.315 25.968C170.4 25.7333 170.443 25.5413 170.443 25.392C170.443 24.6667 170.304 24.048 170.027 23.536C169.771 23.024 169.397 22.6187 168.907 22.32C168.416 22.0213 167.84 21.872 167.179 21.872C166.368 21.872 165.685 22.0533 165.131 22.416C164.597 22.7573 164.181 23.28 163.883 23.984C163.605 24.6667 163.456 25.52 163.435 26.544C163.435 27.5253 163.573 28.3573 163.851 29.04C164.149 29.7227 164.587 30.2453 165.163 30.608C165.739 30.9707 166.432 31.152 167.243 31.152C168.16 31.152 168.939 30.9813 169.579 30.64C170.24 30.2773 170.784 29.744 171.211 29.04L174.827 30.16C174.059 31.5467 173.035 32.592 171.755 33.296C170.496 33.9787 168.981 34.32 167.211 34.32Z" fill="#C70039"/>
<path d="M174 20L175 21L183.5 16L181 13L174 20Z" fill="#C70039" stroke="#C70039"/>
<path d="M172.383 17.7496L171.588 17.5773L171.454 11.9296L174.5 12L172.383 17.7496Z" fill="#C70039" stroke="#C70039"/>
</svg>
